<?xml version="1.0" standalone="no"?>
<!DOCTYPE svg PUBLIC "-//W3C//DTD SVG 20010904//EN"
 "http://www.w3.org/TR/2001/REC-SVG-20010904/DTD/svg10.dtd">
<svg version="1.0" xmlns="http://www.w3.org/2000/svg"
 width="1036.000000pt" height="1036.000000pt" viewBox="0 0 1036.000000 1036.000000"
 preserveAspectRatio="xMidYMid meet">
<metadata>
Created by potrace 1.11, written by Peter Selinger 2001-2013
</metadata>
<g transform="translate(0.000000,1036.000000) scale(0.100000,-0.100000)"
fill="#000000" stroke="none">
<path d="M3005 9510 c-4 -6 1 -50 10 -98 9 -48 23 -121 31 -162 7 -41 20 -129
28 -195 8 -66 29 -199 46 -295 52 -295 70 -404 70 -437 0 -41 10 -47 57 -28
21 8 65 21 98 29 112 26 294 76 377 102 97 31 381 110 548 153 41 10 86 23
100 29 40 16 182 57 355 102 163 42 234 63 270 80 11 5 47 16 80 24 130 30
232 57 266 71 19 7 74 22 120 34 47 11 112 29 145 39 106 35 196 61 354 102
85 22 196 53 245 70 50 16 160 48 245 70 247 64 372 98 400 110 28 12 35 14
303 83 92 24 168 47 167 52 0 5 -105 10 -232 11 -668 8 -1135 15 -1323 19
-115 2 -390 7 -610 10 -220 3 -512 8 -650 10 -137 3 -412 7 -610 10 -198 3
-478 7 -622 10 -172 3 -264 1 -268 -5z"/>
<path d="M2657 9207 c-75 -133 -208 -363 -293 -512 -86 -148 -189 -326 -229
-395 -39 -69 -98 -170 -130 -225 -32 -55 -67 -116 -78 -135 -11 -19 -137 -237
-280 -485 -143 -247 -327 -567 -410 -710 -82 -143 -173 -300 -202 -350 -29
-49 -209 -359 -399 -688 -190 -328 -361 -618 -381 -644 -19 -25 -35 -50 -35
-54 0 -28 42 12 192 179 364 406 592 659 636 706 26 27 58 64 72 82 14 17 113
128 220 245 108 118 222 248 255 289 48 60 293 334 532 595 20 22 70 78 112
125 114 128 468 517 527 580 29 30 65 71 80 90 16 19 57 67 92 105 72 80 70
64 37 275 -52 326 -67 432 -71 495 -3 39 -14 124 -24 190 -10 66 -29 199 -40
295 -22 175 -25 190 -38 189 -4 0 -69 -109 -145 -242z"/>
<path d="M7475 9281 c-78 -20 -160 -45 -183 -54 -24 -10 -105 -33 -180 -53
-197 -51 -277 -73 -362 -101 -41 -13 -118 -35 -170 -49 -141 -36 -383 -102
-480 -131 -214 -65 -199 -60 -452 -124 -46 -12 -110 -32 -143 -44 -54 -21
-102 -35 -342 -95 -39 -10 -76 -21 -82 -24 -6 -4 -55 -18 -108 -32 -54 -13
-107 -29 -118 -34 -26 -11 -269 -79 -468 -130 -87 -22 -165 -45 -175 -50 -9
-5 -98 -30 -197 -55 -186 -48 -306 -81 -410 -115 -33 -11 -107 -31 -164 -45
-95 -22 -132 -38 -120 -49 2 -2 78 -46 169 -98 91 -52 386 -222 655 -378 270
-156 519 -300 555 -320 36 -20 135 -77 220 -127 85 -49 349 -201 585 -338 237
-136 471 -271 520 -299 144 -84 694 -402 1070 -618 72 -42 218 -126 325 -188
107 -62 215 -124 240 -138 25 -13 50 -28 55 -32 6 -4 132 -77 280 -162 489
-281 660 -379 697 -404 45 -29 74 -32 63 -6 -22 50 -77 245 -84 297 -5 33 -27
121 -49 195 -22 74 -45 160 -52 190 -7 30 -19 80 -27 110 -8 30 -23 90 -33
135 -17 71 -69 273 -144 559 -14 54 -26 110 -26 123 0 14 -13 68 -29 121 -39
130 -97 344 -111 412 -14 66 -28 119 -46 180 -7 25 -27 106 -45 180 -17 74
-42 170 -55 212 -13 42 -24 86 -24 97 0 11 -30 127 -66 258 -69 251 -80 293
-90 358 -3 22 -28 117 -54 210 -26 94 -50 184 -53 200 -3 17 -11 48 -17 70
-11 39 -26 104 -36 155 -3 14 -13 54 -24 90 -10 36 -21 83 -25 105 -10 63 -15
75 -33 74 -9 0 -80 -17 -157 -38z"/>
<path d="M7910 9085 c0 -8 6 -34 14 -57 36 -109 104 -366 103 -388 0 -14 24
-115 55 -225 60 -215 86 -314 99 -385 5 -25 20 -85 33 -135 13 -49 31 -119 40
-155 9 -36 29 -112 46 -170 17 -58 33 -123 37 -145 3 -22 27 -119 53 -215 26
-96 62 -233 79 -305 44 -180 84 -338 141 -555 27 -102 52 -205 56 -230 3 -25
30 -130 58 -235 29 -104 63 -235 76 -290 12 -55 34 -140 48 -190 13 -49 30
-115 37 -145 7 -30 22 -91 35 -135 12 -44 25 -95 30 -113 14 -55 26 -64 63
-42 29 16 146 62 402 155 169 62 229 85 255 99 14 8 63 28 110 44 47 17 117
42 155 57 39 15 95 35 125 46 30 11 58 23 63 28 8 8 -21 60 -120 214 -24 37
-49 79 -55 95 -7 15 -36 64 -65 110 -29 45 -53 85 -53 88 0 3 -8 17 -19 32
-10 15 -31 49 -47 76 -16 27 -37 60 -46 75 -10 14 -24 40 -31 56 -13 26 -79
135 -213 350 -20 33 -51 87 -69 120 -17 33 -52 92 -76 130 -54 83 -73 114
-134 220 -25 44 -77 131 -115 194 -39 63 -70 116 -70 117 0 2 -25 41 -55 88
-29 46 -61 99 -70 118 -17 36 -32 62 -112 185 -29 46 -53 85 -53 88 0 2 -20
35 -43 72 -24 37 -46 76 -50 85 -6 17 -152 258 -186 308 -10 14 -35 57 -56 95
-21 39 -93 162 -160 275 -67 113 -142 239 -165 280 -112 195 -133 230 -141
230 -5 0 -9 -7 -9 -15z"/>
<path d="M3185 7880 c-4 -16 -4 -34 -1 -39 3 -5 9 -161 12 -347 3 -187 8 -342
10 -345 2 -3 6 -147 8 -320 5 -293 9 -421 21 -839 3 -91 8 -271 11 -400 3
-129 7 -257 9 -285 2 -27 6 -212 10 -410 3 -198 8 -380 10 -405 2 -25 6 -207
9 -405 4 -198 8 -389 11 -425 6 -92 15 -367 20 -635 15 -814 24 -1118 35
-1129 8 -8 30 0 83 28 186 98 263 140 277 151 16 14 80 49 210 117 47 25 110
58 140 75 30 16 127 67 215 113 88 46 174 93 190 105 30 22 98 59 310 170 61
32 137 72 170 90 33 18 98 53 145 78 47 24 119 64 160 89 67 40 234 130 565
304 61 31 128 69 150 84 38 25 126 73 320 175 254 133 386 205 466 254 25 16
106 60 180 98 74 39 166 87 204 108 39 20 122 65 185 98 63 33 138 75 165 92
28 18 104 61 170 95 66 34 134 70 150 80 17 10 91 49 165 88 74 39 167 88 205
110 128 74 229 129 345 190 63 32 115 65 115 73 0 7 -40 36 -90 65 -107 60
-371 212 -545 314 -69 40 -145 84 -170 98 -25 14 -162 92 -305 175 -143 82
-334 193 -425 245 -91 52 -190 110 -220 128 -30 18 -260 150 -510 294 -250
144 -495 286 -545 315 -49 28 -214 123 -365 210 -151 87 -311 179 -355 205
-44 26 -204 119 -355 205 -151 87 -385 222 -520 300 -135 78 -366 211 -515
297 -148 86 -324 188 -390 227 -66 39 -123 71 -126 71 -4 0 -10 -13 -14 -30z"/>
<path d="M2925 7728 c-60 -70 -87 -101 -207 -233 -35 -38 -84 -97 -108 -129
-25 -33 -118 -141 -208 -240 -90 -100 -189 -210 -221 -246 -32 -36 -105 -116
-162 -179 -57 -62 -119 -132 -137 -155 -19 -22 -99 -113 -179 -201 -80 -88
-178 -196 -218 -240 -40 -44 -90 -100 -111 -124 -22 -25 -80 -90 -129 -145
-50 -56 -101 -117 -115 -136 -13 -19 -69 -84 -123 -145 -55 -60 -125 -139
-157 -175 -32 -36 -127 -141 -212 -235 -84 -93 -187 -208 -229 -255 -41 -47
-90 -99 -107 -117 -18 -17 -32 -36 -32 -41 0 -5 32 -40 72 -78 39 -38 92 -90
117 -115 59 -59 1027 -979 1136 -1079 45 -41 137 -129 206 -196 68 -66 158
-151 199 -189 41 -38 93 -87 115 -110 22 -22 78 -76 125 -120 47 -44 137 -130
200 -190 64 -61 191 -182 284 -270 93 -88 190 -180 215 -205 122 -119 180
-170 191 -170 12 0 12 37 -5 310 -3 41 -8 235 -11 430 -2 195 -7 393 -9 440
-2 47 -7 252 -9 455 -3 204 -8 424 -11 490 -3 66 -8 273 -11 460 -3 187 -7
367 -9 400 -2 33 -6 242 -9 465 -3 223 -8 450 -11 505 -3 55 -8 249 -10 430
-3 182 -7 364 -10 405 -5 68 -12 532 -14 868 -1 99 -4 132 -13 131 -7 0 -40
-32 -73 -71z"/>
<path d="M10125 5191 c-9 -8 -151 -66 -462 -187 -62 -24 -134 -54 -160 -68
-26 -13 -136 -58 -243 -100 -366 -141 -390 -153 -390 -185 0 -9 -13 -55 -30
-101 -16 -47 -30 -92 -30 -100 0 -8 -7 -28 -15 -44 -8 -16 -22 -55 -30 -87 -9
-32 -24 -79 -35 -104 -11 -26 -20 -55 -20 -64 0 -10 -8 -40 -18 -67 -31 -81
-63 -177 -73 -219 -5 -22 -13 -49 -18 -60 -11 -23 -20 -51 -92 -275 -28 -91
-73 -230 -99 -310 -26 -80 -63 -192 -81 -250 -18 -58 -48 -143 -67 -190 -19
-47 -42 -112 -52 -145 -10 -33 -24 -80 -33 -105 -33 -96 -59 -177 -72 -220 -7
-25 -43 -135 -79 -245 -36 -110 -80 -245 -97 -300 -18 -55 -40 -122 -49 -150
-18 -51 -141 -433 -180 -560 -7 -22 -18 -53 -25 -70 -7 -16 -22 -59 -34 -95
-12 -36 -24 -73 -28 -82 -9 -29 16 -21 33 10 17 30 495 869 555 974 21 37 47
82 58 100 95 167 501 870 651 1128 74 128 83 144 149 258 21 37 73 128 116
202 43 74 89 155 103 180 13 25 37 65 52 90 15 25 157 270 315 545 159 275
339 586 402 692 62 105 113 196 113 202 0 13 -22 14 -35 2z"/>
<path d="M8365 4399 c-143 -77 -278 -152 -300 -167 -22 -14 -65 -39 -95 -55
-62 -33 -180 -97 -255 -137 -27 -15 -95 -51 -150 -80 -182 -96 -230 -123 -250
-140 -11 -10 -78 -48 -150 -85 -71 -37 -134 -70 -140 -75 -5 -4 -71 -39 -145
-77 -74 -39 -156 -82 -182 -97 -27 -14 -69 -38 -95 -52 -27 -14 -55 -32 -63
-38 -14 -12 -108 -64 -270 -149 -160 -84 -245 -130 -255 -137 -5 -4 -53 -29
-105 -55 -52 -27 -104 -56 -116 -67 -11 -10 -56 -36 -100 -59 -43 -22 -106
-56 -139 -74 -74 -40 -164 -89 -270 -145 -44 -23 -114 -60 -155 -82 -41 -22
-82 -47 -91 -55 -9 -8 -70 -42 -135 -77 -381 -201 -603 -322 -629 -341 -16
-12 -82 -49 -145 -82 -176 -92 -270 -143 -330 -177 -30 -17 -95 -51 -143 -76
-53 -28 -86 -50 -85 -59 2 -7 26 -20 53 -28 152 -44 253 -75 280 -84 17 -6 48
-15 70 -19 22 -5 63 -16 90 -25 89 -29 267 -82 455 -135 80 -23 170 -50 200
-60 30 -10 91 -28 135 -40 44 -12 109 -31 145 -42 36 -11 85 -26 110 -33 25
-7 86 -25 135 -40 107 -31 194 -57 290 -85 39 -11 100 -29 138 -40 37 -11 100
-30 140 -41 39 -12 95 -30 122 -40 28 -11 57 -19 64 -19 15 0 119 -30 212 -61
31 -11 66 -19 77 -19 12 0 36 -7 54 -15 18 -8 74 -26 123 -40 186 -54 232 -68
289 -86 33 -10 69 -19 81 -19 11 0 30 -6 41 -14 11 -8 42 -19 70 -25 27 -5 81
-19 119 -30 65 -19 101 -29 215 -67 25 -8 50 -14 56 -14 13 0 47 80 64 150 6
25 17 59 25 75 7 17 17 48 20 70 4 22 11 45 15 50 4 6 26 71 50 145 23 74 52
164 65 200 12 36 30 88 39 115 10 28 27 81 37 119 11 38 25 78 31 90 7 12 17
44 25 71 18 71 67 210 97 278 14 32 26 65 26 75 0 10 6 26 14 37 7 11 19 45
26 75 7 30 17 62 21 70 6 12 163 494 202 620 6 19 14 40 18 45 6 9 18 54 25
94 2 8 10 28 18 45 8 17 31 85 51 151 20 66 45 143 55 170 10 28 23 68 30 90
6 22 15 49 19 60 5 11 14 33 20 48 6 15 11 38 11 50 0 13 4 27 8 32 5 6 28 71
51 145 23 74 61 180 83 235 22 55 51 134 64 175 42 133 66 204 85 248 22 50
24 72 7 72 -7 0 -130 -64 -273 -141z"/>
<path d="M211 4483 c0 -5 22 -39 49 -78 27 -38 97 -140 154 -225 58 -85 159
-234 224 -330 136 -201 223 -332 275 -410 20 -30 51 -75 68 -100 18 -25 111
-162 207 -305 97 -143 221 -327 277 -410 56 -82 140 -208 188 -280 48 -71 99
-148 114 -170 16 -21 54 -78 85 -125 32 -47 80 -116 107 -155 27 -38 56 -83
65 -100 10 -16 49 -75 87 -130 39 -55 100 -145 136 -200 36 -55 83 -125 104
-155 21 -30 78 -113 125 -185 48 -71 103 -154 122 -182 19 -29 41 -53 48 -53
7 0 32 35 55 77 35 65 209 367 381 665 22 37 38 76 36 86 -3 16 -124 135 -522
513 -212 201 -322 306 -366 349 -25 25 -122 117 -214 205 -93 88 -188 178
-211 200 -23 22 -111 106 -196 186 -85 80 -208 197 -274 260 -66 63 -156 148
-200 189 -114 109 -278 265 -444 425 -80 78 -198 190 -261 250 -63 61 -132
129 -154 153 -36 38 -67 54 -65 35z"/>
<path d="M3287 1574 c-13 -22 -51 -86 -84 -144 -57 -99 -232 -402 -322 -556
-39 -67 -50 -103 -33 -105 4 -1 34 -2 67 -4 33 -2 111 -6 174 -9 62 -4 117 -8
120 -10 4 -3 63 -7 131 -11 69 -3 184 -10 255 -16 72 -6 155 -12 185 -14 30
-2 84 -7 120 -9 36 -3 110 -8 165 -11 55 -3 123 -8 150 -11 28 -2 127 -9 220
-14 94 -5 215 -14 270 -19 55 -6 150 -13 210 -16 61 -2 133 -6 160 -9 28 -3
86 -7 130 -11 44 -3 100 -8 125 -11 25 -3 90 -7 145 -9 55 -2 159 -8 231 -14
72 -6 178 -13 235 -15 57 -3 142 -9 189 -15 47 -6 168 -15 270 -21 102 -5 239
-15 305 -20 66 -6 186 -15 267 -20 80 -5 158 -12 172 -16 20 -5 26 -2 26 10 0
9 -12 18 -27 22 -71 15 -293 78 -388 110 -22 7 -107 32 -190 54 -82 23 -181
52 -220 65 -38 13 -104 32 -145 44 -41 12 -115 33 -165 47 -49 15 -112 33
-140 40 -27 8 -75 22 -105 33 -30 10 -84 27 -120 36 -81 21 -222 62 -275 80
-59 19 -393 117 -480 140 -27 7 -70 20 -95 29 -25 8 -81 25 -125 37 -44 11
-105 29 -135 39 -30 10 -80 25 -110 34 -154 43 -300 87 -395 116 -33 10 -94
28 -135 39 -171 49 -257 74 -295 89 -22 8 -56 18 -75 23 -19 4 -69 18 -110 29
-128 37 -125 37 -153 -6z"/>
</g>
</svg>
